<svg width="24" height="24" viewBox="0 0 24 24" fill="none" xmlns="http://www.w3.org/2000/svg">
<g id="success/outline">
<path id="Vector" d="M22 12C22 17.5228 17.5228 22 12 22C6.47715 22 2 17.5228 2 12C2 6.47715 6.47715 2 12 2C17.5228 2 22 6.47715 22 12Z" fill="white"/>
<path id="Vector_2" fill-rule="evenodd" clip-rule="evenodd" d="M12 2.75C6.89137 2.75 2.75 6.89137 2.75 12C2.75 17.1086 6.89137 21.25 12 21.25C17.1086 21.25 21.25 17.1086 21.25 12C21.25 6.89137 17.1086 2.75 12 2.75ZM1.25 12C1.25 6.06294 6.06294 1.25 12 1.25C17.9371 1.25 22.75 6.06294 22.75 12C22.75 17.9371 17.9371 22.75 12 22.75C6.06294 22.75 1.25 17.9371 1.25 12Z" fill="#75d0be"/>
<path id="Vector_3" fill-rule="evenodd" clip-rule="evenodd" d="M16.9498 7.89982C17.2813 8.14822 17.3486 8.6183 17.1002 8.94976L11.8545 15.9498C11.7327 16.1123 11.5502 16.2185 11.3487 16.244C11.1472 16.2696 10.9439 16.2123 10.7854 16.0853L7.03112 13.0779C6.70785 12.8189 6.65571 12.3469 6.91468 12.0237C7.17365 11.7004 7.64565 11.6482 7.96893 11.9072L11.1187 14.4304L15.8999 8.05023C16.1482 7.71877 16.6183 7.65142 16.9498 7.89982Z" fill="#75d0be"/>
</g>
</svg>
